<svg width="90" height="38" viewBox="0 0 90 38" fill="none" xmlns="http://www.w3.org/2000/svg">
<g id="Anchor-Fm-by-Spotify 1" clip-path="url(#clip0_331_149)">
<g id="Group">
<path id="Vector" d="M34.6053 22.1075H31.5648L30.4672 19.3932H25.1128L24.0301 22.1075H20.9895L26.4032 8.29883H29.2065L34.6053 22.1075ZM26.0769 16.7828H29.5179L27.7826 12.2738L26.0769 16.7828Z" fill="#6E00FF"/>
<path id="Vector_2" d="M38.3572 22.1075H35.554V12.4518H38.3127V13.1192C38.9208 12.5259 39.7514 12.1996 40.5969 12.2145C42.97 12.2145 44.5274 13.757 44.5274 16.4861V22.1075H41.7241V16.7086C41.7241 15.6852 41.2643 14.8249 40.1222 14.8249C38.8022 14.8249 38.3424 15.8187 38.3424 17.287L38.3572 22.1075Z" fill="#6E00FF"/>
<path id="Vector_3" d="M55.6665 18.3401C55.2067 20.6836 53.4269 22.3151 50.8164 22.3151C47.8945 22.3151 45.729 20.1645 45.729 17.2722C45.729 14.38 47.9093 12.2145 50.8164 12.2145C53.3675 12.2145 55.1474 13.7867 55.5033 16.0708H52.4183C52.3144 15.7148 52.092 15.3885 51.7805 15.1661C51.469 14.9436 51.0982 14.8398 50.7274 14.8546C49.5408 14.8546 48.5916 15.8632 48.5916 17.2722C48.5916 18.6813 49.5408 19.6898 50.7719 19.6898C51.1872 19.7047 51.5877 19.5712 51.914 19.3339C52.2403 19.0817 52.4776 18.7406 52.5814 18.3401H55.6665Z" fill="#6E00FF"/>
<path id="Vector_4" d="M59.6122 22.1075H56.8237V8.29883H59.6122V13.0006C60.2499 12.4815 61.0509 12.1997 61.8666 12.2145C64.2398 12.2145 65.7971 13.757 65.7971 16.4861V22.1075H63.0087V16.7086C63.0087 15.6852 62.5489 14.8249 61.4068 14.8249C60.0868 14.8249 59.627 15.8187 59.627 17.2871L59.6122 22.1075Z" fill="#6E00FF"/>
<path id="Vector_5" d="M72.1301 12.2145C75.052 12.2145 77.2916 14.38 77.2916 17.2722C77.2916 20.1645 75.052 22.3151 72.1301 22.3151C69.2081 22.3151 66.9685 20.1645 66.9685 17.2722C66.9685 14.38 69.2081 12.2145 72.1301 12.2145ZM72.1301 19.7195C73.4501 19.7195 74.4142 18.6961 74.4142 17.2722C74.4142 15.8483 73.4501 14.8249 72.1301 14.8249C70.81 14.8249 69.8459 15.8483 69.8459 17.2722C69.8311 18.6961 70.81 19.7195 72.1301 19.7195Z" fill="#6E00FF"/>
<path id="Vector_6" d="M84.9005 15.7593C84.3962 15.2995 83.7436 15.0325 83.0613 15.0177C82.2159 15.0177 81.2666 15.4775 81.2666 16.8865V22.1074H78.4634V12.4517H81.2221V13.2526C81.2073 13.2526 81.7709 12.3034 83.1503 12.3034C83.4766 12.2886 83.8029 12.3479 84.0996 12.4665C84.3962 12.5852 84.6632 12.7632 84.8857 13.0005V15.7593" fill="#6E00FF"/>
<path id="Vector_7" d="M86.4727 21.1138V18.7407H87.4812C87.6741 18.7258 87.852 18.7555 88.03 18.8C88.1487 18.8445 88.2377 18.9187 88.3118 19.0225C88.386 19.1411 88.4157 19.2598 88.4157 19.3933C88.4157 19.5119 88.386 19.6306 88.3267 19.7344C88.3118 19.7641 88.2822 19.7938 88.2525 19.8234C88.1487 19.9272 88.0004 20.0014 87.852 20.0311C87.9114 20.0904 87.9855 20.1646 88.0449 20.2387C88.1487 20.3574 88.2377 20.4909 88.3118 20.6243C88.3712 20.7282 88.475 20.8765 88.6085 21.0841H88.03L87.6889 20.565C87.6147 20.4464 87.5257 20.3277 87.4367 20.2239C87.3922 20.1794 87.3477 20.1497 87.2884 20.1201C87.2143 20.1052 87.1253 20.0904 87.0511 20.0904H86.9473V21.0841L86.4727 21.1138ZM86.9473 19.7493H87.3032C87.4516 19.7493 87.5851 19.7493 87.7334 19.7196C87.7927 19.7048 87.8372 19.6603 87.8669 19.6158C87.8965 19.5564 87.9114 19.4971 87.9114 19.4378C87.9114 19.3636 87.8965 19.2895 87.852 19.245C87.8075 19.2005 87.7334 19.156 87.6741 19.156C87.6296 19.156 87.5257 19.1411 87.3181 19.1411H86.9473V19.7493Z" fill="#6E00FF"/>
<path id="Vector_8" d="M87.3628 22.0481C87.081 22.0481 86.814 21.9887 86.5471 21.8849C86.2949 21.7811 86.0576 21.6179 85.8648 21.4251C85.7758 21.3361 85.6868 21.2175 85.6126 21.1136C85.3308 20.7132 85.2122 20.2237 85.2567 19.7343C85.3012 19.2448 85.5236 18.785 85.8648 18.4439C85.9538 18.3549 86.0724 18.2659 86.1763 18.1917C86.5322 17.9544 86.9327 17.8209 87.3628 17.8209C87.7781 17.8209 88.1934 17.9544 88.5494 18.1917C88.668 18.2659 88.7719 18.3549 88.8609 18.4439C89.0537 18.6367 89.202 18.8592 89.3207 19.1113C89.4541 19.4376 89.5135 19.7936 89.4838 20.1347C89.4541 20.4907 89.3206 20.817 89.1278 21.1136C89.0537 21.2323 88.9647 21.3361 88.8757 21.4251C88.6829 21.6179 88.4456 21.7811 88.1934 21.8849C87.9413 21.9887 87.6446 22.0481 87.3628 22.0481ZM87.3628 17.9989C86.9772 17.9989 86.6064 18.1176 86.2801 18.3252C85.9538 18.5329 85.7165 18.8443 85.5681 19.2003C85.4198 19.5563 85.3902 19.9419 85.4643 20.3127C85.5385 20.6835 85.7313 21.0395 85.9983 21.3065C86.2652 21.5734 86.6212 21.7663 86.992 21.8404C87.3628 21.9146 87.7633 21.8701 88.1192 21.7366C88.4752 21.5883 88.7719 21.3361 88.9943 21.0247C89.202 20.7132 89.3207 20.3275 89.3207 19.9419C89.3207 19.4228 89.113 18.9333 88.757 18.5774C88.3714 18.1917 87.8819 17.9989 87.3628 17.9989Z" fill="#6E00FF"/>
<path id="Vector_9" d="M56.6306 31.6742H56.0374V27.0021H56.6306V29.0044C56.7196 28.8413 56.868 28.7078 57.0311 28.6336C57.2239 28.5298 57.4464 28.4705 57.6689 28.4853C58.1287 28.4853 58.4698 28.6336 58.722 28.9451C58.9741 29.2862 59.0928 29.7015 59.0928 30.1168C59.0928 30.5321 58.9593 30.9474 58.7071 31.2885C58.5736 31.4369 58.4105 31.5704 58.2325 31.6445C58.0545 31.7187 57.8469 31.7632 57.654 31.7483C57.1943 31.7483 56.8531 31.5704 56.6455 31.2144L56.6306 31.6742ZM58.2028 30.9177C58.3808 30.6804 58.4698 30.3986 58.455 30.1168C58.4698 29.835 58.3808 29.5532 58.2028 29.3159C58.1287 29.2121 58.0249 29.1379 57.9062 29.0934C57.7875 29.0489 57.6689 29.0192 57.5354 29.0192C57.4019 29.0192 57.2832 29.0341 57.1646 29.0934C57.0459 29.1379 56.9421 29.2269 56.868 29.3159C56.69 29.5384 56.601 29.8202 56.6158 30.102C56.601 30.3986 56.69 30.6804 56.868 30.9029C56.9421 31.0067 57.0459 31.0809 57.1646 31.1402C57.2832 31.1996 57.4019 31.2144 57.5354 31.2144C57.6689 31.2144 57.7875 31.1996 57.9062 31.1402C58.0249 31.0957 58.1287 31.0067 58.2028 30.9177Z" fill="#6E00FF"/>
<path id="Vector_10" d="M60.5018 32.9794H59.8344L60.6056 31.3479L59.2708 28.5891H59.9679L60.9319 30.7249L61.8664 28.5891H62.519L60.5018 32.9794Z" fill="#6E00FF"/>
<path id="Vector_11" d="M67.7103 28.1441L67.1466 28.337C67.117 28.1293 67.0132 27.9365 66.85 27.803C66.672 27.6547 66.4347 27.5657 66.1974 27.5657C65.9601 27.5657 65.7228 27.6399 65.5299 27.7882C65.4558 27.8475 65.3816 27.9365 65.3371 28.0255C65.2926 28.1145 65.2778 28.2183 65.2778 28.3221C65.2778 28.4853 65.3223 28.6336 65.4261 28.7523C65.5448 28.8709 65.6931 28.9599 65.8563 28.9896L66.5385 29.1379C66.8797 29.1972 67.1763 29.3604 67.4136 29.5977C67.6213 29.8202 67.7251 30.1168 67.7251 30.4135C67.7251 30.5914 67.6806 30.7694 67.6064 30.9326C67.5323 31.0957 67.4136 31.2441 67.2801 31.3627C66.9835 31.6297 66.6127 31.7632 66.1381 31.7632C65.6189 31.7632 65.2185 31.6297 64.9367 31.3627C64.6549 31.1106 64.4769 30.7694 64.4324 30.3986L65.0405 30.2058C65.0553 30.4728 65.174 30.7101 65.3668 30.9029C65.4706 31.0067 65.5893 31.0809 65.7228 31.1254C65.8562 31.1699 66.0046 31.1996 66.1381 31.1847C66.4347 31.1847 66.672 31.1106 66.8352 30.9771C66.9093 30.9177 66.9835 30.8288 67.0132 30.7398C67.0576 30.6508 67.0725 30.5469 67.0725 30.4431C67.0725 30.28 67.0132 30.1168 66.8945 29.9982C66.761 29.8647 66.583 29.7757 66.3902 29.7312L65.7376 29.5829C65.4261 29.5235 65.1443 29.3752 64.9218 29.1527C64.7142 28.9302 64.6104 28.6336 64.6104 28.337C64.6104 28.159 64.6549 27.981 64.729 27.8178C64.8032 27.6547 64.9218 27.5064 65.0553 27.3877C65.3371 27.1207 65.7228 26.9724 66.1232 26.9724C66.5979 26.9724 66.9538 27.0911 67.206 27.3135C67.4729 27.5509 67.6361 27.8327 67.7103 28.1441Z" fill="#6E00FF"/>
<path id="Vector_12" d="M68.956 32.905H68.3479V28.574H68.9412V29.0635C69.0302 28.9003 69.1785 28.752 69.3417 28.663C69.5345 28.5592 69.7569 28.4999 69.9794 28.5147C70.4244 28.5147 70.7804 28.663 71.0325 28.9745C71.2846 29.3156 71.4181 29.7309 71.4033 30.1462C71.4033 30.5615 71.2698 30.9768 71.0177 31.318C70.8842 31.4663 70.721 31.5849 70.543 31.6739C70.3651 31.7629 70.1574 31.7926 69.9646 31.7778C69.757 31.7778 69.5493 31.7333 69.3565 31.6294C69.1933 31.5405 69.0598 31.4218 68.956 31.2735V32.905ZM70.7952 30.1166C70.81 29.8348 70.721 29.5678 70.543 29.3453C70.4689 29.2415 70.3651 29.1673 70.2464 29.108C70.1277 29.0487 70.0091 29.0338 69.8756 29.0338C69.7421 29.0338 69.6235 29.0487 69.5048 29.108C69.3861 29.1673 69.2823 29.2415 69.2082 29.3453C69.0302 29.5678 68.9412 29.8348 68.956 30.1166C68.9412 30.3984 69.0302 30.6802 69.2082 30.9027C69.2823 31.0065 69.3861 31.0807 69.5048 31.14C69.6235 31.1993 69.7421 31.2141 69.8756 31.2141C70.0091 31.2141 70.1277 31.1993 70.2464 31.14C70.3651 31.0807 70.4689 31.0065 70.543 30.9027C70.721 30.6802 70.81 30.4132 70.7952 30.1166Z" fill="#6E00FF"/>
<path id="Vector_13" d="M72.3826 28.9451C72.6793 28.6484 73.0946 28.4705 73.5247 28.4705C73.9548 28.4705 74.3553 28.6336 74.6668 28.9302C74.8151 29.0934 74.9337 29.2714 75.0079 29.479C75.0821 29.6867 75.1265 29.8943 75.1117 30.1168C75.1117 30.3393 75.0821 30.5469 75.0079 30.7546C74.9337 30.9622 74.8151 31.1402 74.6668 31.3034C74.3553 31.6 73.9548 31.778 73.5247 31.778C73.0946 31.778 72.6793 31.6149 72.3826 31.3034C72.2343 31.1402 72.1156 30.9622 72.0415 30.7546C71.9673 30.5469 71.9228 30.3393 71.9377 30.1168C71.9377 29.8943 71.9673 29.6867 72.0415 29.479C72.1156 29.2862 72.2343 29.1082 72.3826 28.9451ZM72.8424 30.9326C72.9314 31.0216 73.0352 31.0957 73.1539 31.1551C73.2725 31.1996 73.406 31.2292 73.5247 31.2292C73.6582 31.2292 73.7768 31.1996 73.8955 31.1551C74.0141 31.1106 74.118 31.0364 74.207 30.9326C74.3998 30.7398 74.4888 30.458 74.4888 30.1168C74.4888 29.7757 74.3849 29.5087 74.207 29.3011C74.118 29.2121 74.0141 29.1379 73.8955 29.0786C73.7768 29.0192 73.6433 29.0044 73.5247 29.0044C73.3912 29.0044 73.2725 29.0341 73.1539 29.0786C73.0352 29.1231 72.9314 29.1972 72.8424 29.3011C72.6496 29.4939 72.5606 29.7608 72.5606 30.1168C72.5606 30.4728 72.6496 30.7398 72.8424 30.9326Z" fill="#6E00FF"/>
<path id="Vector_14" d="M76.6687 27.5955V28.5744H77.3361V29.1232H76.6687V30.7399C76.6538 30.7992 76.6687 30.8585 76.6835 30.9178C76.6983 30.9772 76.728 31.0217 76.7725 31.0662C76.817 31.1107 76.8615 31.1403 76.9208 31.1552C76.9802 31.17 77.0395 31.17 77.0988 31.17C77.173 31.17 77.262 31.1552 77.3361 31.1403V31.6595C77.2026 31.7039 77.0691 31.7188 76.9208 31.7188C76.8022 31.7188 76.6835 31.7039 76.5797 31.6743C76.4759 31.6298 76.372 31.5705 76.283 31.4963C76.2089 31.4073 76.1347 31.3035 76.1051 31.1997C76.0606 31.081 76.0457 30.9623 76.0606 30.8437V29.138H75.4673V28.5892H75.6304C75.6898 28.5892 75.7639 28.5892 75.8233 28.5595C75.8826 28.5299 75.9419 28.5002 75.9864 28.4557C76.0754 28.3667 76.1051 28.2332 76.1051 28.1146V27.6103L76.6687 27.5955Z" fill="#6E00FF"/>
<path id="Vector_15" d="M78.137 27.714C78.0925 27.6695 78.0628 27.625 78.048 27.5805C78.0331 27.5212 78.0183 27.4767 78.0183 27.4174C78.0183 27.358 78.0331 27.2987 78.048 27.2542C78.0628 27.1949 78.1073 27.1504 78.137 27.1059C78.1815 27.0614 78.226 27.0317 78.2705 27.0021C78.3298 26.9872 78.3743 26.9724 78.4336 26.9724C78.4929 26.9724 78.5523 26.9872 78.5968 27.0021C78.6561 27.0169 78.7006 27.0614 78.7451 27.0911C78.7896 27.1356 78.8192 27.1801 78.8489 27.2394C78.8786 27.2987 78.8786 27.358 78.8786 27.4025C78.8786 27.4619 78.8637 27.5212 78.8489 27.5657C78.8341 27.625 78.7896 27.6695 78.7451 27.6992C78.7006 27.7437 78.6561 27.7733 78.5968 27.7882C78.5374 27.803 78.4929 27.8178 78.4336 27.8178C78.3743 27.8178 78.315 27.803 78.2705 27.7882C78.226 27.7733 78.1815 27.7437 78.137 27.714ZM78.7599 31.6742H78.1518V28.5743H78.7599V31.6742Z" fill="#6E00FF"/>
<path id="Vector_16" d="M81.3555 29.123H80.5991V31.6741H79.9762V29.123H79.3977V28.5742H79.9762V28.0551C79.9613 27.9068 79.991 27.7733 80.0355 27.6398C80.08 27.5063 80.169 27.3876 80.258 27.2838C80.3618 27.1948 80.4656 27.1207 80.5991 27.0613C80.7178 27.0168 80.8661 26.9872 80.9996 26.9872C81.1776 26.9872 81.311 27.002 81.3555 27.0465V27.5805C81.2665 27.5508 81.1776 27.536 81.0886 27.536C80.9699 27.536 80.8364 27.5805 80.7474 27.6546C80.6436 27.7288 80.5991 27.8771 80.5991 28.0699V28.5594H81.3555V29.123Z" fill="#6E00FF"/>
<path id="Vector_17" d="M82.8834 32.9794H82.216L82.9872 31.3479L81.6523 28.5891H82.3495L83.3135 30.7249L84.248 28.5891H84.9006L82.8834 32.9794Z" fill="#6E00FF"/>
<path id="Vector_18" d="M17.5926 11.2356C17.5926 11.2356 16.851 10.8797 16.0797 11.117C15.5013 11.2801 14.8783 11.7251 14.5075 12.6299C13.8104 14.3652 14.4185 17.3909 14.1812 17.3909C13.9439 17.3909 13.2023 14.6025 12.2234 11.6954C11.2296 8.78834 10.3842 5.7626 8.84167 6.01475C7.47712 6.23723 7.89242 9.67827 8.4412 12.8968C8.93066 15.8187 9.47945 18.5627 9.16798 18.5627C8.58952 18.5627 6.72068 10.4792 4.79251 10.7907C2.86434 11.1021 5.3413 20.0014 4.82218 20.0162C4.39205 20.0311 3.33897 14.6025 1.7816 14.8398C0.595035 15.0326 1.64811 19.2598 1.70744 20.4315C1.72227 20.7282 1.81127 21.277 1.3663 21.277H0.491211V22.0927H1.92992C2.22656 22.0779 2.46388 21.9592 2.58253 21.6774C2.983 20.6985 1.92992 16.501 2.18207 16.4714C2.34522 16.4565 2.71602 17.7321 3.22031 19.1708C3.7246 20.6095 4.24373 22.1075 5.20781 22.1075C7.29913 22.1075 5.16332 13.9351 5.57861 13.9351C5.80109 13.9351 6.39438 15.5963 7.04699 17.4206C7.84792 19.6454 8.82684 22.1224 10.0134 22.1224C11.4225 22.1224 10.9627 18.9335 10.5325 15.8781C10.1617 13.238 9.71676 10.7462 9.95408 10.7462C10.488 10.7462 12.4904 22.1224 14.908 22.1224C16.1094 22.1224 16.1242 19.7493 16.1242 17.1833C16.1242 15.3886 15.9759 13.7423 17.1031 13.3418C17.6371 13.149 18.1859 13.4901 18.1859 13.4901L17.5926 11.2356Z" fill="#6E00FF"/>
</g>
</g>
<defs>
<clipPath id="clip0_331_149">
<rect width="89.0312" height="37" fill="white" transform="translate(0.568848 0.5)"/>
</clipPath>
</defs>
</svg>
