<svg width="181" height="26" viewBox="0 0 181 26" fill="none" xmlns="http://www.w3.org/2000/svg">
<g id="audiomack-seeklogo.com 1" clip-path="url(#clip0_331_146)">
<path id="Vector" d="M71.9817 22.1926H67.4629V19.9926H67.3932C66.2725 21.6926 64.7803 22.5441 62.9048 22.5441C59.4964 22.5441 57.798 20.5177 57.798 16.4691V7.75H62.3169V16.0735C62.3169 18.1103 63.1385 19.1324 64.7846 19.1324C65.5975 19.1324 66.2435 18.8529 66.7327 18.2941C67.2219 17.7353 67.4629 16.975 67.4629 16.0147V7.75H71.9817V22.1926ZM56.1809 22.1926H51.8929V20.1191H51.8348C50.8506 21.7368 49.3917 22.5456 47.4625 22.5456C46.0327 22.5456 44.912 22.1485 44.0948 21.3544C43.2761 20.5603 42.8696 19.4971 42.8696 18.1721C42.8696 15.3706 44.5593 13.7529 47.9329 13.3191L51.9219 12.8C51.9219 11.2206 51.0509 10.4324 49.309 10.4324C47.5598 10.4324 45.8948 10.9426 44.3183 11.9676V8.61177C44.9498 8.28824 45.812 8.00883 46.908 7.76471C47.8892 7.5332 48.8924 7.41042 49.8998 7.39853C54.0862 7.39853 56.1809 9.45441 56.1809 13.5603V22.1926ZM51.9219 16.325V15.3515L49.2538 15.6897C47.7804 15.8779 47.0459 16.5309 47.0459 17.6529C47.0459 18.1588 47.2216 18.5779 47.5787 18.9C47.9416 19.2235 48.4264 19.3853 49.0375 19.3853C49.8911 19.3853 50.5806 19.0971 51.1191 18.5191C51.6533 17.9412 51.9219 17.2103 51.9219 16.3235V16.325ZM88.427 22.1926H83.8922V20.2059H83.8385C82.805 21.7662 81.2866 22.5456 79.2891 22.5456C77.4543 22.5456 75.9751 21.9103 74.8588 20.6338C73.7382 19.3632 73.1793 17.5824 73.1793 15.2956C73.1793 12.9074 73.7962 10.9971 75.0301 9.55736C76.264 8.11618 77.8796 7.4 79.8785 7.4C81.7729 7.4 83.0895 8.06471 83.8385 9.40294H83.8922V0.813238H88.4256V22.1912L88.427 22.1926ZM83.9822 15.1691V14.0809C83.9822 13.1426 83.7021 12.3618 83.149 11.7412C82.5959 11.1206 81.8716 10.8118 80.9861 10.8118C79.9816 10.8118 79.1933 11.1971 78.6301 11.9735C78.0669 12.7529 77.7838 13.8162 77.7838 15.1691C77.7838 16.4397 78.0582 17.4177 78.6011 18.1015C79.1498 18.7897 79.9032 19.1309 80.867 19.1309C81.2995 19.1415 81.7283 19.049 82.1189 18.8607C82.5095 18.6724 82.8509 18.3937 83.1156 18.0471C83.6933 17.3206 83.9822 16.3632 83.9822 15.1691ZM92.6962 5.46324C91.9327 5.46324 91.307 5.24265 90.8179 4.79412C90.5844 4.59154 90.398 4.33931 90.2718 4.05538C90.1455 3.77145 90.0827 3.46282 90.0877 3.15147C90.0877 2.48236 90.3272 1.93971 90.8179 1.51471C91.307 1.09118 91.9327 0.879415 92.6962 0.879415C93.47 0.879415 94.1029 1.09118 94.5819 1.51471C95.0667 1.93971 95.3077 2.48236 95.3077 3.15147C95.3077 3.83089 95.0667 4.38383 94.5819 4.81765C94.1029 5.24559 93.47 5.46324 92.6962 5.46324ZM94.8896 17.2971C94.8896 17.9088 95.0362 18.3765 95.3367 18.6882C95.6343 19.0015 96.0306 19.1603 96.5256 19.1603C96.7753 19.1603 97.025 19.1368 97.2703 19.0868C97.52 19.0441 97.7696 18.9956 98.0193 18.9485V22.0824C97.4706 22.2221 96.8972 22.3382 96.2904 22.425C95.6616 22.5168 95.027 22.5615 94.3917 22.5588C93.7893 22.5588 93.2406 22.4632 92.7456 22.2647C92.2681 22.076 91.8371 21.7839 91.4827 21.4088C91.1256 21.0215 90.8509 20.564 90.6756 20.0647C90.484 19.5353 90.3853 18.9441 90.3853 18.2838V7.75H94.8896V17.2971ZM105.182 22.5441C102.734 22.5441 100.811 21.8706 99.41 20.5221C98.0091 19.175 97.3095 17.3397 97.3095 15.0294C97.3095 12.6412 98.0338 10.7691 99.4869 9.42059C100.943 8.07206 102.905 7.39853 105.382 7.39853C107.821 7.39853 109.737 8.07206 111.12 9.42059C112.506 10.7691 113.202 12.5544 113.202 14.7735C113.202 17.1721 112.488 19.0676 111.056 20.4603C109.626 21.8515 107.67 22.5441 105.182 22.5441ZM105.299 10.8118C104.226 10.8118 103.395 11.1735 102.802 11.8956C102.21 12.6221 101.911 13.6471 101.911 14.9721C101.911 17.7441 103.052 19.1309 105.328 19.1309C107.497 19.1309 108.584 17.7059 108.584 14.8603C108.584 12.1603 107.488 10.8118 105.299 10.8118ZM137.721 22.1941H133.202V13.9559C133.202 11.8618 132.418 10.8118 130.85 10.8118C130.107 10.8118 129.5 11.125 129.03 11.7559C128.56 12.3853 128.326 13.1706 128.326 14.1088V22.1926H123.797V13.8691C123.797 11.8324 123.022 10.8118 121.486 10.8118C120.712 10.8118 120.091 11.1103 119.631 11.7118C119.166 12.3147 118.93 13.1324 118.93 14.1676V22.1926H114.401V7.75147H118.93V10.0074H118.989C119.476 9.21808 120.155 8.56964 120.962 8.125C121.809 7.63988 122.766 7.38931 123.739 7.39853C125.815 7.39853 127.233 8.29559 127.998 10.0897C129.119 8.29559 130.759 7.39853 132.934 7.39853C136.126 7.39853 137.721 9.33383 137.721 13.2088V22.1941ZM151.787 22.1941H147.498V20.1176H147.439C146.455 21.7353 144.996 22.5441 143.067 22.5441C141.639 22.5441 140.517 22.15 139.699 21.3559C138.882 20.5618 138.476 19.4971 138.476 18.1721C138.476 15.3706 140.164 13.7529 143.538 13.3191L147.528 12.8C147.528 11.2206 146.657 10.4324 144.914 10.4324C143.166 10.4324 141.501 10.9426 139.924 11.9676V8.61177C140.556 8.28824 141.417 8.00883 142.514 7.76471C143.495 7.53326 144.498 7.41048 145.504 7.39853C149.692 7.39853 151.787 9.45441 151.787 13.5603V22.1926V22.1941ZM147.528 15.3515L144.86 15.6897C143.385 15.8779 142.651 16.5309 142.651 17.6529C142.651 18.1588 142.828 18.5779 143.186 18.9C143.548 19.2235 144.031 19.3853 144.644 19.3853C145.496 19.3853 146.187 19.0971 146.725 18.5191C147.258 17.9412 147.528 17.2103 147.528 16.3235V15.3529V15.3515ZM164.762 21.6735C163.74 22.2559 162.259 22.5441 160.331 22.5441C158.073 22.5441 156.248 21.875 154.853 20.5279C153.458 19.1838 152.757 17.4515 152.757 15.3221C152.757 12.8662 153.506 10.9368 154.999 9.52206C156.498 8.10589 158.501 7.39853 161.006 7.39853C162.734 7.39853 163.988 7.625 164.762 8.07206V11.8559C163.846 11.1686 162.734 10.8021 161.594 10.8118C160.291 10.8118 159.264 11.1824 158.501 11.9338C157.74 12.6794 157.36 13.7103 157.36 15.0294C157.36 16.3044 157.726 17.3103 158.451 18.0382C159.174 18.7706 160.179 19.1309 161.448 19.1309C162.578 19.1309 163.68 18.7853 164.762 18.0868V21.6735ZM180.709 22.1926H175.268L170.58 15.0294H170.52V22.1926H165.991V0.811768H170.52V14.4235H170.578L174.955 7.75H180.33L175.068 14.5338L180.709 22.1926Z" fill="white"/>
<path id="Vector_2" d="M2.32186 12.8558C2.32186 12.8558 3.0767 12.7294 3.38589 13.0617C3.69654 13.3941 3.49331 14.0808 3.08105 14.0911C2.6688 14.1044 2.28702 14.1823 2.01702 13.8867C1.94704 13.806 1.89848 13.7085 1.87591 13.6035C1.85333 13.4985 1.85748 13.3894 1.88796 13.2865C1.91844 13.1835 1.97425 13.0901 2.05016 13.0151C2.12606 12.94 2.21955 12.8857 2.32186 12.8573M10.5032 17.5485C10.4306 17.5544 10.3536 17.5205 10.2752 17.4632C9.73525 16.6926 9.53928 14.0558 9.29105 13.8985C9.03412 13.7352 8.10363 15.3588 6.24992 15.1852C5.47622 15.1117 4.68799 14.597 4.22347 14.2411C4.26702 13.6426 4.27428 12.2426 5.42831 12.697C6.12799 12.975 7.32992 13.7338 8.3838 12.3705C9.54944 10.8632 10.1911 11.3014 10.5772 11.6294C10.9619 11.9558 10.7064 13.6602 11.2812 13.1838C11.8561 12.7073 14.1772 9.74995 14.1772 9.74995C14.1772 9.74995 15.9743 7.89407 16.2501 9.84554C16.5259 11.797 17.6959 13.9588 18.0065 13.897C18.3186 13.8352 21.9332 6.31172 22.4514 5.82495C22.9696 5.33966 24.7115 5.40436 24.6288 6.64848C24.5461 7.89407 24.3675 15.6352 24.3675 15.6352C24.3675 15.6352 24.1643 17.8176 24.4982 16.6514C24.6361 16.1676 24.7841 15.7323 24.9699 15.2235C25.8612 12.297 27.3811 7.29995 28.1388 4.72495L28.5786 3.17348C28.6167 3.01452 28.6623 2.85748 28.7151 2.70289C28.7775 2.48231 28.8211 2.33966 28.8341 2.30142C28.8675 2.20436 28.9633 2.13084 29.0954 2.07789C29.2304 1.99113 29.3741 1.98672 29.5367 1.98231C29.9577 1.94407 30.4977 1.99995 30.984 2.14113C31.1435 2.14889 31.2972 2.2047 31.4253 2.30142L31.4456 2.31613L31.4557 2.32201C31.5068 2.36089 31.5527 2.40637 31.5922 2.45731L31.598 2.46319C31.6212 2.4926 31.6459 2.52936 31.6706 2.56907C31.9406 2.97642 32.1075 3.72789 31.9406 5.06172C31.524 8.38819 31.2003 15.2323 31.2003 15.2323C31.2003 15.2323 31.1378 15.5602 31.807 14.1191C31.8303 14.0691 31.8607 14.025 31.8869 13.9794C31.9353 13.9455 31.9784 13.9043 32.0146 13.8573C32.4283 13.3529 33.5403 13.0558 34.3111 13.0632C34.6362 13.1029 34.9091 13.1867 35.0717 13.2911C35.3765 13.7661 35.1965 15.5161 35.1965 15.5161C34.5549 15.5779 33.3312 15.9308 32.8986 15.9955C32.4632 16.0617 31.8056 18.9455 30.8911 18.65C29.9751 18.3558 27.9341 17.0441 27.9341 16.8647C27.9341 16.7073 28.0938 14.7911 28.1373 14.2985L28.1446 14.2L28.1461 14.1808C28.1751 13.7926 28.1504 13.622 27.9748 14.0102C27.8238 14.3441 27.1662 16.4838 26.4332 18.8132C26.3562 19.0161 24.9714 23.3088 24.7885 23.8323C24.5707 24.4382 24.3893 24.9029 24.2644 25.1441C24.0728 25.4088 23.8144 25.5764 23.453 25.4647C22.553 25.1852 21.4149 23.9132 21.4048 23.597C21.383 21.8176 21.489 12.2397 21.0665 13.0382C20.634 13.8558 17.2691 19.5352 17.2691 19.5352C17.2125 19.5441 17.1719 19.5426 17.1211 19.547C16.883 19.5205 16.5143 19.4411 16.4127 19.2088C16.4069 19.1941 16.3982 19.1808 16.3938 19.1676C16.3873 19.1481 16.381 19.1285 16.3749 19.1088C16.3299 18.9529 16.3111 18.7838 16.2704 18.6441C16.1209 18.125 15.8785 17.3794 15.6259 16.6205C15.2398 15.3264 14.8406 14.0029 14.7738 13.8573C14.6461 13.572 14.4588 13.6926 14.2904 13.8573C13.5399 14.5102 11.9446 17.3897 10.5032 17.5485Z" fill="#FFA200"/>
</g>
<defs>
<clipPath id="clip0_331_146">
<rect width="180" height="25" fill="white" transform="translate(0.772705 0.5)"/>
</clipPath>
</defs>
</svg>
