<svg width="191" height="28" viewBox="0 0 191 28" fill="none" xmlns="http://www.w3.org/2000/svg">
<g id="Frame 44">
<g id="Podcast_icon_final-3">
<g id="_logo_Podcasts_192px-8">
<path id="Shape-8" d="M12.5229 19.0716H15.8804V14.8441V13.1544V8.927H12.5229V13.1544V14.8441V19.0716Z" fill="#F9A825"/>
<path id="Oval-0" d="M2.45118 14.7919C3.37831 14.7919 4.1299 14.0112 4.1299 13.0483C4.1299 12.0853 3.37831 11.3047 2.45118 11.3047C1.52405 11.3047 0.772461 12.0853 0.772461 13.0483C0.772461 14.0112 1.52405 14.7919 2.45118 14.7919Z" fill="#1565C0"/>
<path id="ellipse9-9" d="M2.45118 16.694C3.37831 16.694 4.1299 15.9133 4.1299 14.9504C4.1299 13.9874 3.37831 13.2068 2.45118 13.2068C1.52405 13.2068 0.772461 13.9874 0.772461 14.9504C0.772461 15.9133 1.52405 16.694 2.45118 16.694Z" fill="#1565C0"/>
<path id="Rectangle-path-8" d="M4.1299 13.0482H0.772461V14.9503H4.1299V13.0482Z" fill="#1565C0"/>
<path id="ellipse12-0" d="M25.9537 16.694C26.8809 16.694 27.6325 15.9133 27.6325 14.9504C27.6325 13.9874 26.8809 13.2068 25.9537 13.2068C25.0265 13.2068 24.2749 13.9874 24.2749 14.9504C24.2749 15.9133 25.0265 16.694 25.9537 16.694Z" fill="#1E88E5"/>
<path id="ellipse14-0" d="M25.9537 14.7919C26.8809 14.7919 27.6325 14.0112 27.6325 13.0483C27.6325 12.0853 26.8809 11.3047 25.9537 11.3047C25.0265 11.3047 24.2749 12.0853 24.2749 13.0483C24.2749 14.0112 25.0265 14.7919 25.9537 14.7919Z" fill="#1E88E5"/>
<path id="rect16-5" d="M24.274 14.9504H27.6316V13.0483H24.274V14.9504Z" fill="#1E88E5"/>
<path id="ellipse18-2" d="M8.25001 20.4982C9.17714 20.4982 9.92873 19.7175 9.92873 18.7546C9.92873 17.7916 9.17714 17.011 8.25001 17.011C7.32288 17.011 6.57129 17.7916 6.57129 18.7546C6.57129 19.7175 7.32288 20.4982 8.25001 20.4982Z" fill="#E53935"/>
<path id="ellipse20-8" d="M8.25001 22.401C9.17714 22.401 9.92873 21.6204 9.92873 20.6574C9.92873 19.6945 9.17714 18.9138 8.25001 18.9138C7.32288 18.9138 6.57129 19.6945 6.57129 20.6574C6.57129 21.6204 7.32288 22.401 8.25001 22.401Z" fill="#E53935"/>
<path id="rect22-6" d="M9.92873 18.7552H6.57129V20.6573H9.92873V18.7552Z" fill="#E53935"/>
<path id="ellipse24-4" d="M8.25001 9.08545C9.17714 9.08545 9.92873 8.30482 9.92873 7.34186C9.92873 6.3789 9.17714 5.59827 8.25001 5.59827C7.32288 5.59827 6.57129 6.3789 6.57129 7.34186C6.57129 8.30482 7.32288 9.08545 8.25001 9.08545Z" fill="#E53935"/>
<path id="ellipse26-3" d="M8.25027 15.2675C9.17742 15.2675 9.92902 14.4868 9.92902 13.5239C9.92902 12.5609 9.17742 11.7803 8.25027 11.7803C7.32313 11.7803 6.57153 12.5609 6.57153 13.5239C6.57153 14.4868 7.32313 15.2675 8.25027 15.2675Z" fill="#E53935"/>
<path id="rect28-2" d="M9.92873 7.34204H6.57129V13.5635H9.92873V7.34204Z" fill="#E53935"/>
<path id="ellipse30-7" d="M20.1548 10.9875C21.0819 10.9875 21.8335 10.2069 21.8335 9.24396C21.8335 8.281 21.0819 7.50037 20.1548 7.50037C19.2277 7.50037 18.4761 8.281 18.4761 9.24396C18.4761 10.2069 19.2277 10.9875 20.1548 10.9875Z" fill="#43A047"/>
<path id="ellipse32-9" d="M20.1545 9.08545C21.0817 9.08545 21.8333 8.30482 21.8333 7.34186C21.8333 6.3789 21.0817 5.59827 20.1545 5.59827C19.2274 5.59827 18.4758 6.3789 18.4758 7.34186C18.4758 8.30482 19.2274 9.08545 20.1545 9.08545Z" fill="#43A047"/>
<path id="rect34-0" d="M18.4753 9.24402H21.8328V7.34192H18.4753V9.24402Z" fill="#43A047"/>
<path id="ellipse36-4" d="M14.2017 5.44055C15.1289 5.44055 15.8805 4.65992 15.8805 3.69696C15.8805 2.734 15.1289 1.95337 14.2017 1.95337C13.2746 1.95337 12.5229 2.734 12.5229 3.69696C12.5229 4.65992 13.2746 5.44055 14.2017 5.44055Z" fill="#F9A825"/>
<path id="ellipse38-1" d="M14.2017 3.53857C15.1289 3.53857 15.8805 2.75794 15.8805 1.79498C15.8805 0.832024 15.1289 0.0513916 14.2017 0.0513916C13.2746 0.0513916 12.5229 0.832024 12.5229 1.79498C12.5229 2.75794 13.2746 3.53857 14.2017 3.53857Z" fill="#F9A825"/>
<path id="rect40-9" d="M12.5234 3.6969L15.8809 3.6969V1.7948L12.5234 1.7948V3.6969Z" fill="#F9A825"/>
<path id="ellipse42-1" d="M14.2017 27.9487C15.1289 27.9487 15.8805 27.1681 15.8805 26.2051C15.8805 25.2422 15.1289 24.4615 14.2017 24.4615C13.2746 24.4615 12.5229 25.2422 12.5229 26.2051C12.5229 27.1681 13.2746 27.9487 14.2017 27.9487Z" fill="#F9A825"/>
<path id="ellipse44-5" d="M14.2017 26.0466C15.1289 26.0466 15.8805 25.266 15.8805 24.303C15.8805 23.3401 15.1289 22.5594 14.2017 22.5594C13.2746 22.5594 12.5229 23.3401 12.5229 24.303C12.5229 25.266 13.2746 26.0466 14.2017 26.0466Z" fill="#F9A825"/>
<path id="rect46-3" d="M12.5234 26.2052H15.8809V24.3031H12.5234V26.2052Z" fill="#F9A825"/>
<path id="ellipse48-2" d="M20.1545 22.401C21.0817 22.401 21.8333 21.6204 21.8333 20.6574C21.8333 19.6945 21.0817 18.9138 20.1545 18.9138C19.2274 18.9138 18.4758 19.6945 18.4758 20.6574C18.4758 21.6204 19.2274 22.401 20.1545 22.401Z" fill="#43A047"/>
<path id="ellipse50-8" d="M20.1548 16.2184C21.0819 16.2184 21.8335 15.4377 21.8335 14.4748C21.8335 13.5118 21.0819 12.7312 20.1548 12.7312C19.2277 12.7312 18.4761 13.5118 18.4761 14.4748C18.4761 15.4377 19.2277 16.2184 20.1548 16.2184Z" fill="#43A047"/>
<path id="rect52-3" d="M18.4751 20.6573H21.8325V14.4755H18.4751V20.6573Z" fill="#43A047"/>
<path id="ellipse54-7" d="M14.2017 10.6705C15.1289 10.6705 15.8805 9.88991 15.8805 8.92695C15.8805 7.96398 15.1289 7.18335 14.2017 7.18335C13.2746 7.18335 12.5229 7.96398 12.5229 8.92695C12.5229 9.88991 13.2746 10.6705 14.2017 10.6705Z" fill="#F9A825"/>
<path id="ellipse56-5" d="M14.2017 20.815C15.1289 20.815 15.8805 20.0344 15.8805 19.0715C15.8805 18.1085 15.1289 17.3279 14.2017 17.3279C13.2746 17.3279 12.5229 18.1085 12.5229 19.0715C12.5229 20.0344 13.2746 20.815 14.2017 20.815Z" fill="#F9A825"/>
</g>
</g>
<path id="Podcasts-1" d="M108.782 20.4974H106.729V4.76172H112.174C113.528 4.76172 114.7 5.20492 115.69 6.09134C116.679 6.97776 117.174 8.09493 117.174 9.44287C117.174 10.7908 116.679 11.908 115.69 12.7944C114.7 13.6808 113.528 14.124 112.174 14.124H108.782V20.4974ZM108.782 12.19H112.219C113.082 12.19 113.774 11.9043 114.295 11.3329C114.815 10.7615 115.076 10.1315 115.076 9.44287C115.076 8.75424 114.815 8.12424 114.295 7.55283C113.774 6.98142 113.082 6.69572 112.219 6.69572H108.782V12.19ZM118.876 11.0252C119.933 9.92636 121.279 9.37694 122.916 9.37694C124.553 9.37694 125.899 9.92271 126.956 11.0142C128.012 12.1058 128.541 13.472 128.541 15.113C128.541 16.754 128.012 18.1202 126.956 19.2117C125.899 20.3033 124.553 20.8491 122.916 20.8491C121.279 20.8491 119.933 20.3033 118.876 19.2117C117.82 18.1202 117.292 16.754 117.292 15.113C117.292 13.472 117.82 12.1094 118.876 11.0252ZM120.394 17.948C121.108 18.6513 121.949 19.003 122.916 19.003C123.883 19.003 124.72 18.6477 125.427 17.9371C126.134 17.2265 126.487 16.2851 126.487 15.113C126.487 13.9409 126.134 12.9995 125.427 12.2889C124.72 11.5783 123.883 11.223 122.916 11.223C121.949 11.223 121.112 11.5783 120.405 12.2889C119.698 12.9995 119.345 13.9409 119.345 15.113C119.345 16.2851 119.695 17.2301 120.394 17.948ZM134.729 20.8491C133.316 20.8491 132.096 20.2996 131.069 19.2007C130.042 18.1019 129.529 16.7393 129.529 15.113C129.529 13.4867 130.042 12.1241 131.069 11.0252C132.096 9.92636 133.316 9.37694 134.729 9.37694C135.563 9.37694 136.31 9.55275 136.972 9.9044C137.634 10.256 138.129 10.6956 138.457 11.223H138.546L138.457 9.72857V4.76172H140.51V20.4974H138.546V19.003H138.457C138.129 19.5304 137.634 19.9699 136.972 20.3216C136.31 20.6732 135.563 20.8491 134.729 20.8491ZM135.064 19.003C136.031 19.003 136.853 18.6513 137.53 17.948C138.207 17.2448 138.546 16.2998 138.546 15.113C138.546 13.9262 138.207 12.9812 137.53 12.2779C136.853 11.5747 136.031 11.223 135.064 11.223C134.112 11.223 133.293 11.5783 132.609 12.2889C131.924 12.9995 131.582 13.9409 131.582 15.113C131.582 16.2851 131.924 17.2265 132.609 17.9371C133.293 18.6477 134.112 19.003 135.064 19.003ZM147.636 20.8491C145.999 20.8491 144.653 20.3033 143.596 19.2117C142.54 18.1202 142.012 16.754 142.012 15.113C142.012 13.472 142.54 12.1058 143.596 11.0142C144.653 9.92271 145.999 9.37694 147.636 9.37694C148.856 9.37694 149.868 9.66997 150.671 10.256C151.475 10.8421 152.063 11.582 152.435 12.4757L150.56 13.2449C149.994 11.897 148.975 11.223 147.502 11.223C146.594 11.223 145.795 11.5893 145.103 12.3219C144.411 13.0545 144.065 13.9848 144.065 15.113C144.065 16.2412 144.411 17.1715 145.103 17.9041C145.795 18.6367 146.594 19.003 147.502 19.003C149.035 19.003 150.091 18.329 150.671 16.9811L152.502 17.7503C152.13 18.6293 151.531 19.3656 150.705 19.959C149.879 20.5524 148.856 20.8491 147.636 20.8491ZM157.373 20.8491C156.213 20.8491 155.242 20.5194 154.461 19.8601C153.68 19.2007 153.289 18.329 153.289 17.2448C153.289 16.0727 153.75 15.1533 154.673 14.4866C155.595 13.82 156.734 13.4867 158.088 13.4867C159.293 13.4867 160.282 13.7065 161.056 14.146V13.8383C161.056 13.0471 160.781 12.4135 160.23 11.9373C159.68 11.4611 159.003 11.223 158.199 11.223C157.604 11.223 157.065 11.3622 156.581 11.6406C156.098 11.919 155.766 12.2999 155.588 12.7834L153.713 11.9922C153.966 11.3476 154.465 10.7505 155.208 10.2011C155.952 9.65164 156.935 9.37694 158.155 9.37694C159.553 9.37694 160.714 9.77986 161.636 10.5857C162.559 11.3915 163.02 12.527 163.02 13.9922V20.4974H161.056V19.003H160.967C160.149 20.2337 158.951 20.8491 157.374 20.8491H157.373ZM157.708 19.003C158.556 19.003 159.326 18.6916 160.018 18.0689C160.71 17.4462 161.056 16.71 161.056 15.8602C160.476 15.3914 159.605 15.1569 158.445 15.1569C157.448 15.1569 156.696 15.3694 156.191 15.7943C155.685 16.2192 155.432 16.7173 155.432 17.2887C155.432 17.8162 155.662 18.2338 156.124 18.5414C156.585 18.8491 157.113 19.003 157.708 19.003ZM169.03 20.8491C167.81 20.8491 166.802 20.556 166.006 19.97C165.21 19.3839 164.626 18.6513 164.254 17.7722L166.084 17.025C166.665 18.373 167.654 19.0469 169.053 19.0469C169.692 19.0469 170.217 18.9077 170.626 18.6293C171.035 18.351 171.24 17.9847 171.24 17.5305C171.24 16.8272 170.741 16.351 169.745 16.102L167.535 15.5745C166.836 15.3987 166.174 15.0654 165.549 14.5746C164.924 14.0837 164.611 13.4207 164.611 12.5856C164.611 11.6333 165.039 10.8604 165.894 10.267C166.75 9.67363 167.766 9.37694 168.941 9.37694C169.908 9.37694 170.771 9.59304 171.53 10.0253C172.289 10.4575 172.832 11.0765 173.159 11.8823L171.374 12.6076C170.972 11.6552 170.139 11.1791 168.874 11.1791C168.264 11.1791 167.751 11.3036 167.334 11.5527C166.917 11.8018 166.709 12.1387 166.709 12.5636C166.709 13.179 167.193 13.5966 168.16 13.8163L170.325 14.3218C171.352 14.5562 172.11 14.9591 172.601 15.5306C173.092 16.102 173.338 16.7466 173.338 17.4645C173.338 18.4316 172.936 19.2374 172.133 19.8821C171.329 20.5267 170.295 20.8491 169.03 20.8491ZM179.482 20.6732C178.336 20.6732 177.462 20.3729 176.859 19.7722C176.257 19.1714 175.956 18.3217 175.956 17.2228V11.5747H174.036V9.72857H175.956V6.43199H178.009V9.72857H180.687V11.5747H178.009V17.069C178.009 18.2411 178.5 18.8271 179.482 18.8271C179.854 18.8271 180.166 18.7685 180.419 18.6513L181.134 20.3875C180.687 20.578 180.137 20.6732 179.482 20.6732ZM186.675 20.8491C185.455 20.8491 184.447 20.556 183.651 19.97C182.855 19.3839 182.271 18.6513 181.899 17.7722L183.729 17.025C184.309 18.373 185.299 19.0469 186.697 19.0469C187.337 19.0469 187.862 18.9077 188.271 18.6293C188.68 18.351 188.885 17.9847 188.885 17.5305C188.885 16.8272 188.386 16.351 187.389 16.102L185.18 15.5745C184.48 15.3987 183.818 15.0654 183.193 14.5746C182.568 14.0837 182.256 13.4207 182.256 12.5856C182.256 11.6333 182.684 10.8604 183.539 10.267C184.395 9.67363 185.41 9.37694 186.586 9.37694C187.553 9.37694 188.416 9.59304 189.175 10.0253C189.934 10.4575 190.477 11.0765 190.804 11.8823L189.019 12.6076C188.617 11.6552 187.784 11.1791 186.519 11.1791C185.909 11.1791 185.395 11.3036 184.979 11.5527C184.562 11.8018 184.354 12.1387 184.354 12.5636C184.354 13.179 184.837 13.5966 185.805 13.8163L187.97 14.3218C188.996 14.5562 189.755 14.9591 190.246 15.5306C190.737 16.102 190.983 16.7466 190.983 17.4645C190.983 18.4316 190.581 19.2374 189.777 19.8821C188.974 20.5267 187.94 20.8491 186.675 20.8491Z" fill="#E6E6E6"/>
<path id="Combined-Shape-6" d="M35.1626 12.2948C35.1626 7.59005 38.9582 3.77759 43.488 3.77759C45.9871 3.77759 47.7678 4.79965 49.1111 6.12996L47.5179 7.76851C46.5651 6.82756 45.2686 6.09751 43.488 6.09751C40.1922 6.09751 37.6149 8.85547 37.6149 12.2786C37.6149 15.7017 40.1922 18.4596 43.488 18.4596C45.6279 18.4596 46.8462 17.5674 47.6272 16.7562C48.2676 16.091 48.6894 15.1339 48.8456 13.836H43.488V11.5161H51.0324C51.1105 11.9379 51.1573 12.4246 51.1573 12.9762C51.1573 14.7283 50.7043 16.886 49.2205 18.411C47.7678 19.9684 45.9247 20.7958 43.488 20.7958C38.9582 20.7958 35.1626 16.9833 35.1626 12.2948ZM57.171 9.94242C60.0919 9.94242 62.4661 12.2461 62.4661 15.4259C62.4661 18.5894 60.0919 20.9094 57.171 20.9094C54.25 20.9094 51.8758 18.5894 51.8758 15.4259C51.8758 12.2461 54.25 9.94242 57.171 9.94242ZM57.171 18.7354C58.7642 18.7354 60.1543 17.3727 60.1543 15.4097C60.1543 13.4304 58.7642 12.0839 57.171 12.0839C55.5621 12.0839 54.1876 13.4304 54.1876 15.4097C54.1876 17.3727 55.5777 18.7354 57.171 18.7354ZM68.7296 9.94242C71.6505 9.94242 74.0248 12.2461 74.0248 15.4259C74.0248 18.5894 71.6505 20.9094 68.7296 20.9094C65.8087 20.9094 63.4345 18.5894 63.4345 15.4259C63.4345 12.2461 65.8087 9.94242 68.7296 9.94242ZM68.7296 18.7354C70.3229 18.7354 71.713 17.3727 71.713 15.4097C71.713 13.4304 70.3385 12.0839 68.7296 12.0839C67.1208 12.0839 65.7462 13.4304 65.7462 15.4097C65.7462 17.3727 67.1364 18.7354 68.7296 18.7354ZM82.9124 10.1209H85.1305V19.9684C85.1305 24.0242 82.8343 25.679 80.1165 25.679C77.5548 25.679 76.0085 23.8944 75.4305 22.4343L77.4455 21.5583C77.8048 22.4506 78.6795 23.5051 80.1009 23.5051C81.8347 23.5051 82.9124 22.3857 82.9124 20.2929V19.4979H82.8343C82.3189 20.1631 81.3192 20.7471 80.054 20.7471C77.4143 20.7471 74.9932 18.3461 74.9932 15.2799C74.9932 12.1812 77.4143 9.78019 80.054 9.78019C81.3192 9.78019 82.3189 10.3642 82.8343 11.0132H82.9124V10.1209ZM80.2571 18.5894C81.8347 18.5894 83.0843 17.2105 83.0686 15.2799C83.0686 13.3493 81.8347 11.9379 80.2571 11.9379C78.6639 11.9379 77.3205 13.3493 77.3205 15.2799C77.3205 17.1942 78.6639 18.5894 80.2571 18.5894ZM86.7081 20.5362V4.42652H89.0198V20.5362H86.7081ZM95.3771 18.7354C96.5642 18.7354 97.3764 18.1352 97.9856 17.2267L99.7819 18.4759C99.1883 19.3681 97.7982 20.9094 95.3771 20.9094C92.3781 20.9094 90.1444 18.4921 90.1444 15.4259C90.1444 12.165 92.4093 9.94242 95.1272 9.94242C97.8606 9.94242 99.2039 12.1975 99.6413 13.4304L99.8756 14.0469L92.8154 17.0807C93.3621 18.1676 94.19 18.7354 95.3771 18.7354ZM95.2053 12.0514C94.0181 12.0514 92.3781 13.1384 92.4405 15.2474L97.1577 13.2195C96.9078 12.5219 96.1268 12.0514 95.2053 12.0514Z" fill="#E6E6E6"/>
</g>
</svg>
