<svg width="97" height="24" viewBox="0 0 97 24" fill="none" xmlns="http://www.w3.org/2000/svg">
<g id="Group">
<g id="Group_2">
<g id="Group_3">
<path id="Vector" d="M21.6641 11.0189H20.9769C20.7961 9.05659 20.0004 7.27602 18.8431 5.82248L19.3494 5.31375C19.711 4.95037 19.711 4.33261 19.3494 3.93289C18.9877 3.5695 18.3729 3.5695 17.9751 3.93289L17.4687 4.44162C16.022 3.24246 14.2498 2.47935 12.2968 2.29766V1.60724C12.2968 1.06216 11.8628 0.626099 11.3203 0.626099C10.7778 0.626099 10.3438 1.06216 10.3438 1.60724V2.29766C8.39079 2.47935 6.61859 3.2788 5.17191 4.44162L4.66556 3.93289C4.30389 3.5695 3.68908 3.5695 3.29124 3.93289C2.92957 4.29627 2.92957 4.91403 3.29124 5.31375L3.79754 5.82248C2.60403 7.27602 1.84456 9.05659 1.66372 11.0189H0.976537C0.434031 11.0189 0 11.4549 0 12C0 12.5451 0.434031 12.9811 0.976537 12.9811H1.66372C1.84456 14.9434 2.6402 16.724 3.79754 18.1775L3.29124 18.6862C2.92957 19.0496 2.92957 19.6674 3.29124 20.0671C3.65291 20.4305 4.26772 20.4305 4.66556 20.0671L5.17191 19.5584C6.61859 20.7575 8.39079 21.5206 10.3438 21.7023V22.3928C10.3438 22.9378 10.7778 23.3739 11.3203 23.3739C11.8628 23.3739 12.2968 22.9378 12.2968 22.3928V21.7023C14.2498 21.5206 16.022 20.7212 17.4687 19.5584L17.9751 20.0671C18.3367 20.4305 18.9515 20.4305 19.3494 20.0671C19.711 19.7037 19.711 19.086 19.3494 18.6862L18.8431 18.1775C20.0366 16.724 20.7961 14.9434 20.9769 12.9811H21.6641C22.2066 12.9811 22.6406 12.5451 22.6406 12C22.6044 11.4549 22.1704 11.0189 21.6641 11.0189ZM16.6368 17.3781C15.2625 18.7589 13.3818 19.5947 11.2841 19.5947C9.18646 19.5947 7.30575 18.7589 5.93141 17.3781C4.55706 15.9972 3.72522 14.1076 3.72522 12C3.72522 10.1467 4.37625 8.47517 5.46126 7.167L10.1268 11.3822C10.1629 11.4186 10.1991 11.4913 10.1991 11.5639V11.6003C10.163 11.7093 10.163 11.782 10.163 11.891C10.163 12.1817 10.2715 12.4361 10.4161 12.6904C10.6331 12.9811 10.9948 13.1628 11.3565 13.1992C11.3926 13.1992 11.3927 13.1992 11.4288 13.1992C11.7905 13.1992 12.116 13.0538 12.3692 12.7994C12.5862 12.5451 12.7308 12.218 12.7308 11.891C12.7308 11.8546 12.7308 11.8183 12.7308 11.7456C12.6947 11.3822 12.4777 11.0189 12.1883 10.8008C11.9713 10.6555 11.7182 10.5828 11.465 10.5828C11.3565 10.5828 11.248 10.5828 11.1395 10.6191C11.1033 10.6191 11.1033 10.6191 11.0672 10.6191C10.9948 10.6191 10.9587 10.5828 10.8863 10.5465L6.54627 6.07685C7.84829 5.02303 9.4758 4.40529 11.2841 4.40529C13.3818 4.40529 15.2625 5.24106 16.6368 6.62192C17.0709 7.05798 17.4326 7.53039 17.7581 8.03912L11.8267 14.798C11.7905 14.8344 11.7182 14.8707 11.6458 14.8707H11.6097C11.5373 14.8344 11.4288 14.8344 11.3565 14.8344C11.0671 14.8344 10.7778 14.9434 10.5608 15.0888C10.2715 15.3068 10.0906 15.6702 10.0545 16.0699C10.0545 16.1062 10.0545 16.1062 10.0545 16.1426C10.0545 16.5059 10.1991 16.833 10.4523 17.0874C10.7055 17.3054 10.9948 17.4507 11.3565 17.4507C11.3926 17.4507 11.465 17.4507 11.5011 17.4507C11.8628 17.4144 12.2245 17.1964 12.4415 16.9057C12.5861 16.6876 12.6585 16.4333 12.6585 16.1789C12.6585 16.0699 12.6585 15.9609 12.6223 15.8519C12.6223 15.8155 12.6223 15.8155 12.6223 15.7792C12.6223 15.7065 12.6585 15.6702 12.6947 15.6338L18.5537 9.74702C18.7707 10.4738 18.8792 11.2369 18.8792 12C18.8792 14.1076 18.0112 15.9972 16.6368 17.3781Z" fill="white"/>
</g>
</g>
<g id="Group_4">
<g id="Group_5">
<path id="Vector_2" d="M28.7891 3.60579H27.27V2.1886H29.8741C30.6336 2.1886 31.2846 2.33395 31.8633 2.58832C32.4419 2.84269 32.9121 3.16973 33.2737 3.60579C33.6354 4.04185 33.9248 4.51425 34.1056 5.02298C34.2864 5.56806 34.395 6.07679 34.395 6.65821C34.395 7.20328 34.2864 7.74836 34.1056 8.29343C33.9248 8.83851 33.6354 9.3109 33.2737 9.71062C32.9121 10.1467 32.4419 10.4737 31.8633 10.7281C31.2846 10.9825 30.6336 11.1278 29.8741 11.1278H27.27V4.87763L28.7891 3.60579ZM28.7891 3.60579V9.63795H29.8379C30.4889 9.63795 31.0676 9.49259 31.5016 9.20189C31.9356 8.91118 32.2611 8.5478 32.5142 8.0754C32.7312 7.63934 32.8398 7.1306 32.8398 6.62187C32.8398 6.11313 32.7312 5.60439 32.5142 5.16833C32.2972 4.73227 31.9718 4.33256 31.5016 4.04185C31.0676 3.75115 30.4889 3.60579 29.8379 3.60579H28.7891Z" fill="white"/>
<path id="Vector_3" d="M35.8777 11.0915V2.1886H38.6625C39.2412 2.1886 39.7475 2.29761 40.1454 2.4793C40.5432 2.69733 40.8687 2.9517 41.1219 3.27875C41.3751 3.60579 41.5197 3.96918 41.5921 4.3689C41.6644 4.76862 41.6644 5.132 41.5559 5.53172C41.4474 5.8951 41.2666 6.25849 41.0134 6.58554C40.7602 6.91258 40.3985 7.16695 39.9645 7.3123L42.5324 11.0915H40.7241L38.337 7.53032H37.3605V11.0915H35.8777ZM37.3967 3.60579V6.11313H38.6625C38.988 6.11313 39.2412 6.04046 39.4582 5.93144C39.6752 5.82243 39.8199 5.64074 39.9284 5.45905C40.0369 5.27736 40.0731 5.05932 40.0731 4.84129C40.0731 4.62326 40.0007 4.40524 39.8922 4.22355C39.7837 4.04185 39.639 3.89649 39.422 3.75114C39.205 3.64213 38.9519 3.56945 38.6264 3.56945H37.3967V3.60579Z" fill="white"/>
<path id="Vector_4" d="M43.5813 2.1886H45.1003V7.71202C45.1003 8.0754 45.1727 8.36611 45.2812 8.62047C45.3897 8.87484 45.5705 9.09288 45.7513 9.27457C45.9322 9.45626 46.1492 9.56528 46.4023 9.67429C46.6555 9.74697 46.9087 9.7833 47.1618 9.7833C47.415 9.7833 47.6682 9.74697 47.9213 9.67429C48.1745 9.60162 48.3915 9.45626 48.5724 9.27457C48.7532 9.09288 48.9341 8.87484 49.0426 8.62047C49.1511 8.36611 49.2234 8.0754 49.2234 7.71202V2.1886H50.7424V7.71202C50.7424 8.32977 50.6339 8.87485 50.4169 9.31091C50.1999 9.78331 49.9467 10.1467 49.6212 10.4737C49.2957 10.8008 48.8979 11.0188 48.4639 11.1642C48.0298 11.3095 47.5959 11.3822 47.1618 11.3822C46.7278 11.3822 46.2938 11.3095 45.8598 11.1642C45.4258 11.0188 45.0642 10.7644 44.7025 10.4737C44.377 10.1467 44.0876 9.78331 43.9068 9.31091C43.6898 8.83851 43.5813 8.32977 43.5813 7.71202V2.1886Z" fill="white"/>
<path id="Vector_5" d="M53.4912 2.1886H53.9975L57.3611 8.58414L60.7246 2.1886H61.2309L62.5691 11.0915H61.0863L60.2906 6.00412L57.6504 11.0915H57.1441L54.4677 6.00412L53.7082 11.0915H52.2253L53.4912 2.1886Z" fill="white"/>
<path id="Vector_6" d="M65.2815 2.1886H65.7878L69.1514 8.58414L72.5149 2.1886H73.0212L74.3594 11.0915H72.8766L72.0809 6.00412L69.4407 11.0915H68.9344L66.258 6.00412L65.4985 11.0915H64.0156L65.2815 2.1886Z" fill="white"/>
<path id="Vector_7" d="M81.5928 2.1886V3.60579H77.3974V5.93144H80.6887V7.34863H77.3974V9.67429H81.5928V11.0915H75.8784V2.1886H81.5928Z" fill="white"/>
<path id="Vector_8" d="M83.0034 11.0915V2.1886H85.7883C86.367 2.1886 86.8733 2.29761 87.2711 2.4793C87.669 2.69733 87.9945 2.9517 88.2476 3.27875C88.5008 3.60579 88.6455 3.96918 88.7178 4.3689C88.7902 4.76862 88.7902 5.132 88.6817 5.53172C88.5732 5.8951 88.3923 6.25849 88.1392 6.58554C87.886 6.91258 87.5243 7.16695 87.0903 7.3123L89.6582 11.0915H87.8498L85.4628 7.53032H84.4863V11.0915H83.0034ZM84.5225 3.60579V6.11313H85.7883C86.1138 6.11313 86.367 6.04046 86.584 5.93144C86.801 5.82243 86.9457 5.64074 87.0542 5.45905C87.1627 5.27736 87.1988 5.05932 87.1988 4.84129C87.1988 4.62326 87.1265 4.40524 87.018 4.22355C86.9095 4.04185 86.7648 3.89649 86.5478 3.75114C86.3308 3.64213 86.0777 3.56945 85.7521 3.56945H84.5225V3.60579Z" fill="white"/>
<path id="Vector_9" d="M91.3579 8.98384C91.6111 9.34722 91.9727 9.60159 92.4067 9.74694C92.8407 9.8923 93.2748 9.96497 93.7088 9.96497C93.8896 9.96497 94.0705 9.96497 94.2513 9.92863C94.4321 9.8923 94.613 9.81962 94.7938 9.74694C94.9746 9.67427 95.0831 9.56525 95.2278 9.4199C95.3363 9.27455 95.4086 9.09285 95.4086 8.87483C95.4086 8.6568 95.3363 8.4751 95.1916 8.32975C95.047 8.1844 94.8661 8.0027 94.6491 7.89369C94.4321 7.74833 94.1428 7.63932 93.8534 7.5303C93.5641 7.42129 93.2386 7.27593 92.9493 7.16692C92.6237 7.02157 92.3344 6.87622 92.0451 6.73087C91.7557 6.58551 91.5026 6.40382 91.2494 6.18579C91.0324 5.96776 90.8154 5.74973 90.7069 5.45903C90.5622 5.16832 90.4899 4.87761 90.4899 4.51423C90.4899 4.07817 90.5622 3.71478 90.7431 3.38774C90.9239 3.06069 91.1409 2.80633 91.4303 2.5883C91.7196 2.37027 92.0451 2.22491 92.4067 2.1159C92.7684 2.00688 93.1663 1.9342 93.5641 1.9342C94.1428 1.9342 94.7215 2.04322 95.2278 2.29759C95.7341 2.55196 96.2405 2.84266 96.6745 3.24239L95.6618 4.36888C95.3724 4.07817 95.047 3.86014 94.6853 3.67845C94.3236 3.5331 93.9258 3.42408 93.528 3.42408C93.3471 3.42408 93.1663 3.46042 92.9855 3.49676C92.8046 3.5331 92.6599 3.60577 92.5153 3.67845C92.3706 3.75113 92.2621 3.89648 92.1898 4.04183C92.1174 4.18719 92.0813 4.36888 92.0813 4.58691C92.0813 4.84128 92.1898 5.0593 92.4429 5.24099C92.6961 5.42268 92.9855 5.56804 93.3471 5.74973C93.7088 5.89508 94.1066 6.07678 94.5406 6.22213C94.9746 6.40382 95.3725 6.58551 95.7341 6.83988C96.0958 7.09424 96.3851 7.38495 96.6383 7.71199C96.8915 8.07538 97 8.51144 97 9.02018C97 9.45624 96.8915 9.81962 96.7106 10.1467C96.5298 10.4737 96.2766 10.7281 95.9511 10.9461C95.6618 11.1641 95.3001 11.3095 94.9023 11.4185C94.5044 11.5275 94.1428 11.5639 93.745 11.5639C93.4194 11.5639 93.0939 11.5275 92.7684 11.4912C92.4429 11.4185 92.1174 11.3458 91.8281 11.2005C91.5387 11.0915 91.2494 10.9098 90.9963 10.7281C90.7431 10.5464 90.4899 10.292 90.3091 10.0377L91.3579 8.98384Z" fill="white"/>
<path id="Vector_10" d="M26.7637 13.1628H28.355L30.9952 18.9406L33.6716 13.1628H35.2268L31.1037 22.1748H30.8144L30.1995 20.6849L30.8144 19.3404H29.5847L26.7637 13.1628Z" fill="white"/>
<path id="Vector_11" d="M36.384 13.1628H37.903V22.0657H36.384V13.1628Z" fill="white"/>
<path id="Vector_12" d="M39.603 13.1628H41.1221V20.6485H45.3174V22.0657H39.603V13.1628Z" fill="white"/>
<path id="Vector_13" d="M46.4746 13.1628H47.9937V20.6485H52.189V22.0657H46.4746V13.1628Z" fill="white"/>
<path id="Vector_14" d="M59.0969 13.1628V14.58H54.9016V16.9057H58.1928V18.3229H54.9016V20.6485H59.0969V22.0657H53.3826V13.1628H59.0969Z" fill="white"/>
</g>
</g>
</g>
</svg>
