<svg xmlns="http://www.w3.org/2000/svg" width="534" height="601" viewBox="0 0 534 601" fill="none">
  <path d="M532.833 400.6V400.614L532.834 400.628C533.149 406.272 533.149 411.928 532.834 417.572L532.833 417.585L532.833 417.598C532.732 442.668 524.501 467.028 509.375 487.021C494.248 507.014 473.044 521.559 448.946 528.473C424.848 535.387 399.158 534.296 375.733 525.365C352.308 516.433 332.413 500.142 319.036 478.94C305.659 457.737 299.521 432.766 301.546 407.778C303.57 382.79 313.647 359.133 330.263 340.36C346.879 321.587 369.137 308.712 393.694 303.668C418.252 298.623 443.783 301.682 466.453 312.385L467.167 312.722V311.933V75.6V74.9772L466.558 75.1118L233.225 126.778L232.833 126.865V127.267V467.267V467.282L232.834 467.296C233.178 473.049 233.178 478.817 232.834 484.57L232.833 484.583L232.833 484.597C232.661 509.652 224.369 533.976 209.201 553.919C194.034 573.862 172.809 588.35 148.71 595.209C124.611 602.067 98.9379 600.927 75.5421 591.959C52.1463 582.99 32.2892 566.678 18.9498 545.468C5.61032 524.258 -0.49224 499.295 1.55758 474.323C3.6074 449.351 13.6991 425.717 30.3187 406.967C46.9383 388.216 69.1897 375.36 93.7348 370.327C118.28 365.294 143.795 368.356 166.453 379.052L167.167 379.389V378.6V100.6V100.598C167.133 93.1197 169.653 85.8543 174.31 80.0032C178.967 74.1522 185.482 70.0662 192.777 68.4211L492.772 1.75539C492.773 1.75528 492.773 1.75516 492.774 1.75505C497.569 0.719804 502.535 0.77223 507.307 1.90849C512.08 3.04487 516.538 5.23643 520.352 8.32209L520.357 8.32563C524.226 11.3833 527.357 15.2734 529.517 19.707C531.677 24.1406 532.811 29.0039 532.833 33.9356V400.6Z" stroke="url(#paint0_linear_303_122)"/>
  <defs>
    <linearGradient id="paint0_linear_303_122" x1="267.12" y1="0.515625" x2="267.12" y2="600.133" gradientUnits="userSpaceOnUse">
      <stop stop-color="#EDC34A"/>
      <stop offset="1" stop-color="#ED724A"/>
    </linearGradient>
  </defs>
</svg>