<svg xmlns="http://www.w3.org/2000/svg" width="351" height="706" viewBox="0 0 351 706" fill="none">
  <path d="M84.5067 640H100.667H117.063C117.297 640.979 117.705 642.484 118.349 644.32C119.48 647.548 121.348 651.825 124.304 656.095C130.225 664.649 140.512 673.167 157.917 673.167C178.675 673.167 189.494 658.897 195.101 644.704C200.705 630.516 201.167 616.268 201.167 615.95C201.167 601.964 200.332 587.463 198.814 572.566L198.767 572.103L198.301 572.117C197.223 572.15 196.145 572.167 195.083 572.167C128.033 572.167 79.5624 551.278 47.857 520.089C16.1478 488.897 1.16675 447.364 1.16675 406C1.16675 310.183 64.0234 243.517 119.797 189.743L119.971 189.575L119.948 189.335C118.582 175.398 117.833 161.815 117.833 148.7C117.833 91.1228 138.73 39.3816 173.637 10.234C173.637 10.2339 173.637 10.2339 173.637 10.2338L184.356 1.2937L194.767 10.5896L194.768 10.5901C196.087 11.7643 227.917 40.806 227.917 95.2667C227.917 113.087 219.428 130.162 205.932 147.556C192.444 164.94 174.008 182.578 154.188 201.539L154.154 201.572L154.154 201.572L154.146 201.58C154.138 201.589 154.124 201.601 154.091 201.629L154.087 201.633C154.061 201.655 154.019 201.691 153.98 201.73L153.807 201.903L153.837 202.146C157.023 227.284 162.077 253.667 168.145 280.958L168.269 281.516L168.805 281.32C182.864 276.174 198.956 273.167 217.333 273.167C263.159 273.167 296.354 292.585 318.102 318.889C339.863 345.209 350.167 378.428 350.167 406C350.167 487.748 287.61 547.008 231.026 565.826L230.644 565.952L230.686 566.353C232.485 583.322 233.5 599.887 233.5 615.95C233.5 633.276 228.358 655.688 216.33 673.754C204.313 691.801 185.437 705.5 157.917 705.5C129.987 705.5 111.645 692.633 100.273 677.944C89.1346 663.558 84.7004 647.449 84.5067 640ZM125.427 230.652L125.268 229.686L124.579 230.381C78.7189 276.574 33.5001 332.851 33.5001 406C33.5001 436.768 44.021 470.126 69.371 495.849C94.7268 521.577 134.869 539.616 194.015 539.833L194.6 539.835L194.511 539.257C186.657 488.54 172.928 434.521 159.495 381.67L159.235 380.643L159.235 380.643L158.972 379.611C155.124 364.516 151.25 349.316 147.536 334.148L147.32 333.266L146.69 333.92C125.226 356.197 116.978 386.491 116.835 405.5H84.5015C84.6672 376.481 99.233 327.296 138.55 297.766L138.81 297.572L138.738 297.255C133.589 274.712 128.991 252.389 125.427 230.652ZM176.153 313.457L175.765 313.624L175.864 314.034C180.515 333.238 185.499 352.824 190.566 372.673C190.566 372.673 190.566 372.674 190.566 372.674L190.588 372.762C204.166 426.139 218.032 480.65 226.206 532.594L226.303 533.209L226.883 532.982C268.824 516.533 317.833 471.219 317.833 406C317.833 392.941 313.216 367.839 298.353 345.988C283.471 324.108 258.323 305.5 217.333 305.5C201.453 305.5 187.802 308.462 176.153 313.457ZM182.913 47.4937L182.551 46.8874L182.099 47.4302C161.857 71.7574 150.167 108.263 150.167 148.7C150.167 152.155 150.217 155.644 150.334 159.167L150.372 160.307L151.184 159.506C163.479 147.395 174.565 135.739 182.579 124.931C190.58 114.14 195.583 104.112 195.583 95.2667C195.583 73.6435 188.95 57.6059 182.913 47.4937Z" stroke="url(#paint0_linear_312_361)"/>
  <defs>
    <linearGradient id="paint0_linear_312_361" x1="175.667" y1="0.633331" x2="175.667" y2="706" gradientUnits="userSpaceOnUse">
      <stop stop-color="#EDC34A"/>
      <stop offset="1" stop-color="#F19679"/>
    </linearGradient>
  </defs>
</svg>