<svg width="49" height="48" viewBox="0 0 49 48" fill="none" xmlns="http://www.w3.org/2000/svg">
<g id="play-circle 1">
<path id="Vector" d="M24.5 4.5C13.7478 4.5 5 13.2478 5 24C5 34.7522 13.7478 43.5 24.5 43.5C35.2522 43.5 44 34.7522 44 24C44 13.2478 35.2522 4.5 24.5 4.5ZM31.5097 24.8719L20.78 31.3538C20.6262 31.4459 20.4507 31.4955 20.2714 31.4974C20.0921 31.4993 19.9156 31.4535 19.7598 31.3646C19.6041 31.2758 19.4748 31.1471 19.3852 30.9918C19.2956 30.8365 19.249 30.6602 19.25 30.4809V17.5191C19.249 17.3398 19.2956 17.1635 19.3852 17.0082C19.4748 16.8529 19.6041 16.7242 19.7598 16.6354C19.9156 16.5465 20.0921 16.5007 20.2714 16.5026C20.4507 16.5045 20.6262 16.5541 20.78 16.6462L31.5097 23.1281C31.6592 23.2192 31.7829 23.3473 31.8686 23.5C31.9544 23.6527 31.9995 23.8249 31.9995 24C31.9995 24.1751 31.9544 24.3473 31.8686 24.5C31.7829 24.6527 31.6592 24.7808 31.5097 24.8719Z" fill="white"/>
</g>
</svg>
