<svg width="93" height="28" viewBox="0 0 93 28" fill="none" xmlns="http://www.w3.org/2000/svg">
<g id="spotify-1 (1) 1" clip-path="url(#clip0_241_489)">
<path id="Vector" d="M13.8819 0.118042C6.21529 0.118042 0 6.33316 0 13.9997C0 21.6671 6.21529 27.8819 13.8819 27.8819C21.5488 27.8819 27.7637 21.6671 27.7637 13.9997C27.7637 6.33365 21.5491 0.118705 13.8817 0.118705L13.8819 0.118042ZM20.248 20.1394C19.9987 20.5484 19.4659 20.6765 19.0583 20.4274C15.7985 18.435 11.6954 17.9849 6.86326 19.0888C6.39762 19.1956 5.93347 18.9036 5.82739 18.4382C5.7208 17.9725 6.01138 17.5084 6.47818 17.4023C11.7662 16.1933 16.3021 16.7137 19.9611 18.9496C20.3688 19.1999 20.4981 19.732 20.2478 20.1398L20.248 20.1394ZM21.9471 16.3601C21.6331 16.8695 20.9671 17.0293 20.4584 16.7165C16.7278 14.4233 11.0391 13.759 6.62556 15.0988C6.05316 15.2717 5.44861 14.9491 5.27488 14.3777C5.10248 13.8053 5.42524 13.2019 5.99663 13.0278C11.0381 11.4981 17.3055 12.2391 21.5905 14.8723C22.0995 15.1856 22.2602 15.852 21.9469 16.3603L21.9471 16.3601ZM22.093 12.4241C17.6182 9.7667 10.2373 9.52236 5.96562 10.8188C5.27968 11.0269 4.55428 10.6396 4.34641 9.95368C4.13854 9.26741 4.52544 8.5425 5.21188 8.33397C10.1154 6.84538 18.2671 7.13298 23.4181 10.1909C24.0351 10.5571 24.2375 11.3539 23.8718 11.9701C23.5071 12.5871 22.7081 12.7905 22.0931 12.4241H22.093ZM37.768 12.9334C35.3711 12.3618 34.9444 11.9606 34.9444 11.1177C34.9444 10.3214 35.6942 9.78544 36.8092 9.78544C37.89 9.78544 38.9616 10.1924 40.0852 11.0302C40.1192 11.0555 40.1618 11.0656 40.2037 11.059C40.2457 11.0527 40.2828 11.0297 40.3074 10.995L41.4777 9.34532C41.5257 9.27735 41.5126 9.1837 41.4478 9.13181C40.1106 8.0588 38.6048 7.53712 36.8446 7.53712C34.2567 7.53712 32.449 9.0902 32.449 11.3123C32.449 13.6952 34.0084 14.539 36.7031 15.1903C38.9966 15.7186 39.3837 16.1612 39.3837 16.9524C39.3837 17.8291 38.6009 18.3742 37.3413 18.3742C35.9422 18.3742 34.8011 17.9029 33.5245 16.7974C33.4928 16.77 33.4494 16.7576 33.4093 16.7599C33.367 16.7634 33.3284 16.783 33.3015 16.8153L31.9893 18.377C31.9343 18.4418 31.9412 18.5386 32.0049 18.5947C33.4902 19.9206 35.3169 20.621 37.2882 20.621C40.0769 20.621 41.879 19.0973 41.879 16.7389C41.884 14.748 40.6921 13.6457 37.773 12.9355L37.768 12.9334ZM48.1881 10.5695C46.9793 10.5695 45.9879 11.0456 45.1703 12.0211V10.9231C45.1703 10.8364 45.1 10.7658 45.0135 10.7658H42.8673C42.7806 10.7658 42.7105 10.8364 42.7105 10.9231V23.1239C42.7105 23.2106 42.7806 23.2812 42.8673 23.2812H45.0135C45.1 23.2812 45.1703 23.2106 45.1703 23.1239V19.2726C45.988 20.1903 46.9797 20.6387 48.1881 20.6387C50.4341 20.6387 52.7078 18.9098 52.7078 15.6047C52.7111 12.2988 50.4367 10.5693 48.1906 10.5693L48.1881 10.5695ZM50.2121 15.6047C50.2121 17.2877 49.1754 18.4622 47.691 18.4622C46.2234 18.4622 45.1164 17.2344 45.1164 15.6047C45.1164 13.9752 46.2234 12.7472 47.691 12.7472C49.1514 12.747 50.2123 13.9485 50.2123 15.6045L50.2121 15.6047ZM58.5353 10.5695C55.6428 10.5695 53.3768 12.7968 53.3768 15.6407C53.3768 18.4536 55.6273 20.6575 58.4998 20.6575C61.4026 20.6575 63.6756 18.4377 63.6756 15.6047C63.6756 12.7815 61.4178 10.5698 58.5351 10.5698L58.5353 10.5695ZM58.5353 18.4789C56.9968 18.4789 55.8369 17.2428 55.8369 15.6039C55.8369 13.958 56.9567 12.7636 58.4998 12.7636C60.0483 12.7636 61.2159 13.9997 61.2159 15.6398C61.2159 17.2854 60.0887 18.4789 58.5355 18.4789H58.5353ZM69.8522 10.7658H67.4906V8.35121C67.4906 8.26468 67.4206 8.19407 67.3339 8.19407H65.1881C65.1012 8.19407 65.0307 8.26468 65.0307 8.35121V10.7658H63.9988C63.9125 10.7658 63.8425 10.8364 63.8425 10.9231V12.7676C63.8425 12.8541 63.9125 12.9249 63.9988 12.9249H65.0307V17.6975C65.0307 19.6262 65.9907 20.6041 67.8839 20.6041C68.6538 20.6041 69.2924 20.4451 69.8944 20.1038C69.9433 20.0764 69.9736 20.0237 69.9736 19.9677V18.2112C69.9736 18.157 69.9454 18.1058 69.899 18.0775C69.8522 18.0481 69.7941 18.0466 69.7462 18.0703C69.3327 18.2784 68.9331 18.3743 68.4863 18.3743C67.7977 18.3743 67.4906 18.0617 67.4906 17.361V12.9257H69.8522C69.9389 12.9257 70.0087 12.8551 70.0087 12.7684V10.9241C70.012 10.8374 69.9424 10.7668 69.8546 10.7668L69.8522 10.7658ZM78.081 10.7752V10.4787C78.081 9.60623 78.4155 9.21718 79.1657 9.21718C79.6132 9.21718 79.9725 9.30603 80.375 9.4403C80.4246 9.45589 80.4763 9.44809 80.5166 9.41842C80.558 9.38874 80.5814 9.34117 80.5814 9.29078V7.48225C80.5814 7.41312 80.537 7.35196 80.4703 7.33156C80.0451 7.20508 79.5011 7.07529 78.6865 7.07529C76.7043 7.07529 75.6564 8.19157 75.6564 10.3023V10.7565H74.6254C74.5388 10.7565 74.4679 10.8271 74.4679 10.9136V12.7676C74.4679 12.8541 74.5388 12.9249 74.6254 12.9249H75.6564V20.2865C75.6564 20.3731 75.7264 20.4438 75.8129 20.4438H77.9591C78.0458 20.4438 78.1164 20.3731 78.1164 20.2865V12.9254H80.1202L83.1898 20.2851C82.8413 21.0584 82.4986 21.2123 82.0309 21.2123C81.6528 21.2123 81.2546 21.0994 80.8475 20.8766C80.8092 20.8555 80.7637 20.8521 80.7225 20.8648C80.6815 20.8792 80.647 20.9097 80.6296 20.9495L79.9023 22.5454C79.8676 22.6208 79.8973 22.7093 79.9699 22.7484C80.7293 23.1597 81.4147 23.3353 82.262 23.3353C83.8467 23.3353 84.7226 22.5971 85.4948 20.6112L89.2181 10.9901C89.2368 10.9417 89.2312 10.8869 89.2015 10.844C89.172 10.8014 89.1244 10.7757 89.0723 10.7757H86.8381C86.7712 10.7757 86.7113 10.8183 86.6894 10.8812L84.4007 17.4187L81.8938 10.8768C81.8709 10.816 81.8122 10.7757 81.7473 10.7757H78.0805L78.081 10.7752ZM73.3102 10.7658H71.164C71.0773 10.7658 71.0067 10.8364 71.0067 10.9231V20.2865C71.0067 20.3732 71.0773 20.4438 71.164 20.4438H73.3102C73.3967 20.4438 73.4675 20.3732 73.4675 20.2865V10.9237C73.4675 10.9031 73.4635 10.8826 73.4556 10.8635C73.4477 10.8443 73.4361 10.827 73.4214 10.8123C73.4068 10.7977 73.3894 10.7861 73.3703 10.7783C73.3512 10.7704 73.3307 10.7664 73.31 10.7664L73.3102 10.7658ZM72.2492 6.50241C71.399 6.50241 70.7091 7.19067 70.7091 8.0409C70.7091 8.89162 71.3992 9.58072 72.2493 9.58072C73.0992 9.58072 73.7884 8.89162 73.7884 8.0409C73.7884 7.19084 73.0988 6.50241 72.2501 6.50241H72.2492ZM91.0506 13.7763C90.2012 13.7763 89.5403 13.0941 89.5403 12.2658C89.5403 11.4375 90.2098 10.7475 91.0586 10.7475C91.908 10.7475 92.5689 11.4295 92.5689 12.2572C92.5689 13.0855 91.8992 13.7763 91.0505 13.7763H91.0506ZM91.0589 10.8977C90.2853 10.8977 89.6999 11.5127 89.6999 12.2658C89.6999 13.0186 90.2811 13.6253 91.0511 13.6253C91.8246 13.6253 92.4106 13.0108 92.4106 12.2572C92.4106 11.5044 91.8287 10.8977 91.0596 10.8977H91.0589ZM91.3938 12.4125L91.8209 13.0106H91.4607L91.0761 12.4619H90.7455V13.0106H90.4439V11.4252H91.1509C91.5193 11.4252 91.7615 11.6137 91.7615 11.931C91.7631 12.1909 91.6123 12.3497 91.3951 12.4125H91.3938V12.4125ZM91.1385 11.6972H90.7453V12.1987H91.1385C91.3347 12.1987 91.4519 12.1027 91.4519 11.9477C91.4519 11.7846 91.3342 11.6972 91.1386 11.6972H91.1385V11.6972Z" fill="#1ED760"/>
</g>
<defs>
<clipPath id="clip0_241_489">
<rect width="92.5689" height="27.7639" fill="white" transform="translate(0 0.118042)"/>
</clipPath>
</defs>
</svg>
